<svg width="2048" height="2048" viewBox="0 0 2048 2048" fill="none" xmlns="http://www.w3.org/2000/svg">
<rect width="2048" height="2048" rx="386" fill="#7C6FE0"/>
<path d="M1049.92 628.846C1141.57 599.019 1234.41 566.371 1325.71 535.211C1347.18 528.067 1368.6 520.778 1389.96 513.346C1463.27 487.906 1459.93 488.168 1524.27 529.768L1594.52 575.237C1648.03 609.753 1709.21 646.635 1761.28 681.969C1702.07 721.489 1639.84 759.819 1579.88 798.659L1517.47 839.076C1494.7 853.8 1468.79 874.251 1439.8 867.083C1417.66 861.609 1395.37 852.76 1373.68 845.347L1215.24 791.478C1195.6 784.801 1176.17 778.135 1156.34 771.43C1145.88 767.893 1120.8 757.274 1118.07 776.227C1117.17 782.481 1119.47 788.649 1121.33 794.636C1122.88 799.876 1124.8 805.822 1126.05 811.079L1239.47 1211.02L1240.43 1214.52C1260.85 1284.5 1256.45 1281.76 1217.52 1342.11L1172.18 1412.44L1046.32 1608.24L1035.62 1624.81C1031.54 1631.19 1027.56 1637.64 1023.68 1644.15L1011.35 1624.81L994.347 1598.23L866.533 1399.37L827.132 1338.68C818.803 1325.88 810.819 1313.79 803.277 1300.47C786.691 1271.17 798.152 1244.19 806.483 1214.85C813 1191.9 819.614 1169.18 826.111 1146.33L884.207 940.852C890.406 919.068 929.044 792.456 928.636 778.135C928.519 774.104 927.462 770.011 924.123 767.406C919.718 763.974 912.724 764.706 907.646 765.88C885.221 771.053 856.126 783.182 833.624 790.846L677.946 843.804C655.005 851.675 631.959 860.364 608.537 866.547C580.227 874.017 558.722 857.361 536.53 843.143L484.996 810.034L286 682.122L471.961 562.545L529.809 525.374C592.184 485.389 590.908 490.858 659.205 514.262L736.387 540.396L1000.39 630.046C1008.07 632.529 1016.04 635.229 1023.76 637.492C1032.41 634.759 1041.46 632.049 1049.92 628.846ZM935.808 1341.03C931.03 1327.16 839.587 1246.49 825.443 1227.95C823.399 1225.27 812.804 1214.44 809.591 1213.17C809.455 1217.69 813.255 1220.47 817.121 1224.37C840.267 1247.73 864.558 1272.04 887.742 1295.12C894.766 1302.11 929.103 1337.42 935.808 1341.03ZM639.837 681.287C641.564 673.172 640.78 567.468 639.022 556.072C636.87 588.341 638.201 647.408 638.604 680.712L638.28 759.504C638.251 774.555 637.591 795.633 639.499 809.982C641.104 800.751 640.496 764.205 640.252 752.702C639.79 730.863 640.844 705.015 639.864 683.629C666.666 685.306 695.377 683.224 722.362 683.944C736.323 684.318 751.958 684.037 765.833 683.262C757.069 680.757 742.479 682.31 733.031 681.785C703.918 680.163 668.371 684.722 639.837 681.287ZM615.046 683.911C621.97 683.942 628.317 684.352 635.053 682.856C606.793 680.173 566.763 683.269 536.905 681.876C529.289 681.986 520.139 681.752 512.819 683.329C542.064 685.115 584.816 683.882 615.046 683.911Z" fill="#F2EEFF"/>
<path d="M994.348 1598.23L995.338 1596.37C997.856 1591.54 1003.26 1575.3 1010.27 1574.36C1021.6 1572.86 1035.44 1574.19 1047.18 1574.3L1047 1589.3C1037.08 1589.29 1013.22 1587.71 1008.66 1598.43C1013.96 1609.9 1035.5 1608.11 1046.32 1608.24L1035.62 1624.81C1031.54 1631.2 1027.56 1637.64 1023.68 1644.15L1011.35 1624.81L994.348 1598.23Z" fill="#F2EEFF"/>
<path d="M1011.35 1624.81C1018.48 1624.09 1028.57 1623.55 1035.62 1624.81C1031.54 1631.19 1027.56 1637.64 1023.68 1644.15L1011.35 1624.81Z" fill="#F2EEFF"/>
<path d="M1023.77 637.493C1032.41 634.76 1041.46 632.05 1049.92 628.847C1049.77 634.426 1049.27 640.532 1048.92 646.149C1032.93 646.216 1016.94 646.166 1000.95 646.001C1000.46 640.014 1000.3 636.05 1000.39 630.046C1008.07 632.529 1016.04 635.229 1023.77 637.493Z" fill="#F2EEFF"/>
<path d="M1239.47 1211.03L1240.43 1214.52C1213.7 1240.63 1187.2 1266.96 1160.93 1293.53C1149.3 1305.23 1125.29 1331.37 1112.98 1339.03C1117 1329.94 1211.81 1239.65 1224.88 1224.69C1228.04 1221.07 1234.58 1215.01 1238.77 1212.07C1239 1211.72 1239.24 1211.37 1239.47 1211.03Z" fill="#F2EEFF"/>
<path d="M1121.33 794.636C1122.88 799.876 1124.8 805.822 1126.05 811.079C1119.33 808.847 1116.36 805.682 1112.21 799.936C1114.01 795.332 1115.53 800.832 1121.33 794.636Z" fill="#F2EEFF"/>
<path d="M998.34 1374.49C1017.88 1374.15 1060.57 1368.04 1069.83 1389.45C1075 1401.42 1062.6 1428.15 1051.43 1422.07C1048.98 1410.27 1057.15 1407.74 1056.61 1393.71C1053.03 1391.36 1046.12 1388.4 1042.33 1390.76C1043.51 1397.47 1046.04 1401.01 1048 1407.75C1046.71 1415.07 1041.17 1419.04 1035.7 1423.86C1015.49 1427.5 994.03 1425.58 998.71 1397.5C998.982 1395.85 1002.52 1395.32 1002.99 1390.05L999.464 1388.67C997.52 1385.74 998.283 1378.42 998.34 1374.49Z" fill="#F2EEFF"/>
<path d="M1020.92 1389.4C1037.88 1392.45 1039.54 1405.79 1022.98 1410.95C1008.9 1406.88 1005.36 1395.67 1020.92 1389.4Z" fill="#F2EEFF"/>
<path d="M1022.74 711.796L1036.06 712.969C1053.94 724.466 1051.28 728.38 1045.05 744.857C1046.54 750.674 1049.32 751.268 1050.23 758.214C1049.8 759.387 1049.37 761.444 1048.37 761.68C1034.9 764.866 1007.18 763.967 993.77 761.386C984.628 759.628 981.272 754.271 977.88 748.466C975.991 737.358 979.307 718.362 990.119 712.869C994.743 713.182 992.482 712.583 996.828 715.669C1001.11 725.456 992.199 727.252 990.445 739.755C992.528 746.35 996.993 749.191 1004.01 747.659C1006.57 741.401 985.012 716.819 1022.74 711.796Z" fill="#F2EEFF"/>
<path d="M1019.19 727.77C1034.75 727.094 1043.66 735.965 1030.12 747.624C1015.81 748.578 1006.42 739.395 1019.19 727.77Z" fill="#F2EEFF"/>
<path d="M982.363 1515.85C1001.98 1516.85 1026.81 1516.23 1046.97 1516.45C1046.82 1520.77 1044.24 1535.34 1044.69 1537.12C1048.12 1550.77 1050.74 1550.17 1039.4 1563.03C1017.1 1577.63 983.591 1557.72 1004.3 1531.58L982.268 1531.52L982.363 1515.85Z" fill="#F2EEFF"/>
<path d="M1018.04 1531.4C1034.4 1530.9 1040.81 1543.44 1026.39 1551.79C1009.92 1552.06 1005.64 1542.51 1018.04 1531.4Z" fill="#F2EEFF"/>
<path d="M1014.79 1432.44C1025.39 1431.98 1036.74 1432.39 1047.4 1432.57L1047.26 1448.22C1040.88 1448.32 1016.93 1445.95 1013.74 1450.37C998.826 1471.02 1038.04 1466.36 1047.13 1466.79C1047.29 1471.6 1047.28 1475.25 1047.06 1480.06C1041.5 1482.66 1006.81 1481.94 999.577 1481.08C996.872 1478.45 998.041 1479.91 996.889 1475.81C997.969 1470.5 998.334 1470.71 1001.21 1466.87C1005.1 1461.69 994.079 1450.5 999.19 1442.23C1002.87 1436.27 1008.69 1434.1 1014.79 1432.44Z" fill="#F2EEFF"/>
<path d="M1000.05 655.999C1013.25 655.823 1034.11 655.014 1046.48 656.207C1049.94 658.442 1048.64 656.917 1050 661.318C1048.88 666.666 1048.46 666.947 1045.22 671.612L1044.34 672.853C1047.83 677.618 1049.65 680.38 1049.92 686.422C1050.77 705.496 1028.51 704.872 1015.69 705.062L1000.57 705.158L999.77 689.792C1012.8 689.931 1029.41 691.963 1038.99 681.881C1038.58 668.717 1010.39 670.985 1000.88 671.174L1000.05 655.999Z" fill="#F2EEFF"/>
<path d="M1407.33 554.849C1411.14 559.404 1409.92 574.352 1409.91 580.852C1409.87 614.237 1409.79 647.625 1409.72 681.013C1440.71 681.583 1471.9 681.08 1502.9 681.008C1513.76 680.982 1524.76 680.581 1535.41 683.095C1529.9 685.938 1422.2 684.44 1409.57 683.992C1410.6 722.949 1410.53 772.366 1409.51 811.254L1407.91 811.428C1404.95 803.802 1406.77 700.335 1406.85 684.669L1329.81 684.698C1317.71 684.686 1293.24 685.259 1282.52 683.045C1289.67 679.808 1390.17 681.199 1406.34 681.211C1407.71 639.628 1405.86 597.007 1407.33 554.849Z" fill="#F2EEFF"/>
<path d="M997.859 1491.21C1014.38 1491.08 1030.91 1491.1 1047.43 1491.27L1047.41 1506.46L998.315 1506.51L997.859 1491.21Z" fill="#F2EEFF"/>
<path d="M809.591 1213.17C812.804 1214.44 823.399 1225.27 825.443 1227.95C839.588 1246.49 931.031 1327.16 935.808 1341.03C929.104 1337.42 894.766 1302.11 887.742 1295.12C864.558 1272.04 840.267 1247.73 817.121 1224.38C813.255 1220.47 809.455 1217.69 809.591 1213.17Z" fill="#F2EEFF"/>
<path d="M639.838 681.287C668.372 684.722 703.918 680.164 733.032 681.786C742.48 682.31 757.07 680.758 765.833 683.262C751.958 684.037 736.323 684.319 722.363 683.944C695.377 683.224 666.666 685.306 639.864 683.629L639.838 681.287Z" fill="#F2EEFF"/>
<path d="M638.604 680.712L639.837 681.287L639.864 683.629C640.844 705.015 639.79 730.863 640.252 752.702C640.496 764.205 641.104 800.751 639.499 809.982C637.591 795.633 638.251 774.555 638.28 759.504L638.604 680.712Z" fill="#F2EEFF"/>
<path d="M980.438 1489.59C993.046 1490.47 996.238 1496.84 990.463 1507.74C986.282 1507.79 985.65 1507.91 981.431 1507.05C974.184 1501.12 976.524 1496.99 980.438 1489.59Z" fill="#F2EEFF"/>
<path d="M1060.75 627.646C1071.44 632.314 1073.14 638.525 1065.87 647.732C1061.26 647.525 1060.17 647.832 1056.44 645.044C1052.11 637.328 1054.28 633.037 1060.75 627.646Z" fill="#F2EEFF"/>
<path d="M536.906 681.877C566.764 683.27 606.794 680.174 635.054 682.857C628.318 684.353 621.971 683.942 615.047 683.911C584.817 683.883 542.065 685.116 512.82 683.329C520.14 681.753 529.29 681.987 536.906 681.877Z" fill="#F2EEFF"/>
<path d="M638.605 680.712C638.202 647.408 636.871 588.341 639.023 556.072C640.781 567.469 641.565 673.173 639.839 681.287L638.605 680.712Z" fill="#F2EEFF"/>
</svg>
